<?xml version="1.0" encoding="utf-8"?>
<!DOCTYPE svg PUBLIC "-//W3C//DTD SVG 1.1//EN" "http://www.w3.org/Graphics/SVG/1.1/DTD/svg11.dtd" [
	<!ENTITY ns_flows "http://ns.adobe.com/Flows/1.0/">
	<!ENTITY ns_extend "http://ns.adobe.com/Extensibility/1.0/">
	<!ENTITY ns_ai "http://ns.adobe.com/AdobeIllustrator/10.0/">
	<!ENTITY ns_graphs "http://ns.adobe.com/Graphs/1.0/">
]>
<svg version="1.1" id="Layer_1" xmlns:x="&ns_extend;" xmlns:i="&ns_ai;" xmlns:graph="&ns_graphs;"
	 xmlns="http://www.w3.org/2000/svg" xmlns:xlink="http://www.w3.org/1999/xlink" xmlns:a="http://ns.adobe.com/AdobeSVGViewerExtensions/3.0/"
	 x="0px" y="0px" viewBox="0 0 2272 1872" enable-background="new 0 0 2272 1872" xml:space="preserve">
<g>
	<defs>
		<rect id="SVGID_1_" width="2272" height="1872"/>
	</defs>
	<clipPath id="SVGID_2_">
		<use xlink:href="#SVGID_1_"  overflow="visible"/>
	</clipPath>
	<linearGradient id="SVGID_3_" gradientUnits="userSpaceOnUse" x1="1135.9999" y1="1182.8002" x2="1135.9999" y2="5.6">
		<stop  offset="0" style="stop-color:#395873"/>
		<stop  offset="0.1603" style="stop-color:#2E4962"/>
		<stop  offset="0.3938" style="stop-color:#20374F"/>
		<stop  offset="0.6174" style="stop-color:#162A42"/>
		<stop  offset="0.8248" style="stop-color:#0F223A"/>
		<stop  offset="1" style="stop-color:#0C1F38"/>
		<a:midPointStop  offset="0" style="stop-color:#395873"/>
		<a:midPointStop  offset="0.328" style="stop-color:#395873"/>
		<a:midPointStop  offset="1" style="stop-color:#0C1F38"/>
	</linearGradient>
	<rect x="0" y="5.6" clip-path="url(#SVGID_2_)" fill="url(#SVGID_3_)" width="2272" height="1177.2"/>
	<g opacity="0.47" clip-path="url(#SVGID_2_)">
		<g>
			<path fill="#FFFFFF" d="M1931.1,662.4c-8.1,0.2-8.3,0.3-8.4,8.4c-0.2-8.1-0.3-8.3-8.4-8.4c8.1-0.2,8.3-0.3,8.4-8.4
				C1922.8,662.1,1923,662.2,1931.1,662.4z"/>
			<path fill="#FFFFFF" d="M2060,556.2c-8.1,0.2-8.3,0.3-8.4,8.4c-0.2-8.1-0.3-8.3-8.4-8.4c8.1-0.2,8.3-0.3,8.4-8.4
				C2051.7,555.9,2051.9,556,2060,556.2z"/>
			<path fill="#FFFFFF" d="M1756.6,706c-8.1,0.2-8.3,0.3-8.4,8.4c-0.2-8.1-0.3-8.3-8.4-8.4c8.1-0.2,8.3-0.3,8.4-8.4
				C1748.4,705.7,1748.5,705.8,1756.6,706z"/>
			<path fill="#FFFFFF" d="M1769.4,502.6c-8.1,0.2-8.3,0.3-8.4,8.4c-0.2-8.1-0.3-8.3-8.4-8.4c8.1-0.2,8.3-0.3,8.4-8.4
				C1761.1,502.3,1761.3,502.4,1769.4,502.6z"/>
		</g>
		<g>
			<path fill="#FFFFFF" d="M2041.1,481.9c-8.1,0.2-8.3,0.3-8.4,8.4c-0.2-8.1-0.3-8.3-8.4-8.4c8.1-0.2,8.3-0.3,8.4-8.4
				C2032.9,481.5,2033,481.7,2041.1,481.9z"/>
			<path fill="#FFFFFF" d="M2170,375.6c-8.1,0.2-8.3,0.3-8.4,8.4c-0.2-8.1-0.3-8.3-8.4-8.4c8.1-0.2,8.3-0.3,8.4-8.4
				C2161.8,375.3,2161.9,375.5,2170,375.6z"/>
			<path fill="#FFFFFF" d="M1866.7,525.4c-8.1,0.2-8.3,0.3-8.4,8.4c-0.2-8.1-0.3-8.3-8.4-8.4c8.1-0.2,8.3-0.3,8.4-8.4
				C1858.4,525.1,1858.5,525.3,1866.7,525.4z"/>
			<path fill="#FFFFFF" d="M1879.4,322.1c-8.1,0.2-8.3,0.3-8.4,8.4c-0.2-8.1-0.3-8.3-8.4-8.4c8.1-0.2,8.3-0.3,8.4-8.4
				C1871.1,321.8,1871.3,321.9,1879.4,322.1z"/>
		</g>
		<g>
			<path fill="#FFFFFF" d="M1177.5,592c-8.1,0.2-8.3,0.3-8.4,8.4c-0.2-8.1-0.3-8.3-8.4-8.4c8.1-0.2,8.3-0.3,8.4-8.4
				C1169.3,591.7,1169.4,591.8,1177.5,592z"/>
			<path fill="#FFFFFF" d="M1306.4,485.7c-8.1,0.2-8.3,0.3-8.4,8.4c-0.2-8.1-0.3-8.3-8.4-8.4c8.1-0.2,8.3-0.3,8.4-8.4
				C1298.2,485.4,1298.3,485.6,1306.4,485.7z"/>
			<path fill="#FFFFFF" d="M1003.1,635.5c-8.1,0.2-8.3,0.3-8.4,8.4c-0.2-8.1-0.3-8.3-8.4-8.4c8.1-0.2,8.3-0.3,8.4-8.4
				C994.8,635.2,995,635.4,1003.1,635.5z"/>
			<path fill="#FFFFFF" d="M1015.8,432.2c-8.1,0.2-8.3,0.3-8.4,8.4c-0.2-8.1-0.3-8.3-8.4-8.4c8.1-0.2,8.3-0.3,8.4-8.4
				C1007.6,431.9,1007.7,432,1015.8,432.2z"/>
		</g>
		<g>
			<path fill="#FFFFFF" d="M537.2,583.5c8.1,0.2,8.3,0.3,8.4,8.4c0.2-8.1,0.3-8.3,8.4-8.4c-8.1-0.2-8.3-0.3-8.4-8.4
				C545.5,583.2,545.4,583.4,537.2,583.5z"/>
			<path fill="#FFFFFF" d="M408.3,477.3c8.1,0.2,8.3,0.3,8.4,8.4c0.2-8.1,0.3-8.3,8.4-8.4c-8.1-0.2-8.3-0.3-8.4-8.4
				C416.6,477,416.5,477.2,408.3,477.3z"/>
			<path fill="#FFFFFF" d="M711.7,627.1c8.1,0.2,8.3,0.3,8.4,8.4c0.2-8.1,0.3-8.3,8.4-8.4c-8.1-0.2-8.3-0.3-8.4-8.4
				C719.9,626.8,719.8,626.9,711.7,627.1z"/>
			<path fill="#FFFFFF" d="M699,423.7c8.1,0.2,8.3,0.3,8.4,8.4c0.2-8.1,0.3-8.3,8.4-8.4c-8.1-0.2-8.3-0.3-8.4-8.4
				C707.2,423.4,707.1,423.6,699,423.7z"/>
		</g>
		<g>
			<path fill="#FFFFFF" d="M249.3,728.9c8.1,0.2,8.3,0.3,8.4,8.4c0.2-8.1,0.3-8.3,8.4-8.4c-8.1-0.2-8.3-0.3-8.4-8.4
				C257.6,728.6,257.4,728.7,249.3,728.9z"/>
			<path fill="#FFFFFF" d="M120.4,622.7c8.1,0.2,8.3,0.3,8.4,8.4c0.2-8.1,0.3-8.3,8.4-8.4c-8.1-0.2-8.3-0.3-8.4-8.4
				C128.7,622.4,128.5,622.5,120.4,622.7z"/>
			<path fill="#FFFFFF" d="M423.8,772.5c8.1,0.2,8.3,0.3,8.4,8.4c0.2-8.1,0.3-8.3,8.4-8.4c-8.1-0.2-8.3-0.3-8.4-8.4
				C432,772.2,431.9,772.3,423.8,772.5z"/>
			<path fill="#FFFFFF" d="M411,569.1c8.1,0.2,8.3,0.3,8.4,8.4c0.2-8.1,0.3-8.3,8.4-8.4c-8.1-0.2-8.3-0.3-8.4-8.4
				C419.3,568.8,419.2,569,411,569.1z"/>
		</g>
	</g>
	<g opacity="0.47" clip-path="url(#SVGID_2_)">
		<g>
			<path fill="#FFFFFF" d="M359.3,249.1c8.1,0.2,8.3,0.3,8.4,8.4c0.2-8.1,0.3-8.3,8.4-8.4c-8.1-0.2-8.3-0.3-8.4-8.4
				C367.6,248.8,367.4,248.9,359.3,249.1z"/>
			<path fill="#FFFFFF" d="M230.4,142.9c8.1,0.2,8.3,0.3,8.4,8.4c0.2-8.1,0.3-8.3,8.4-8.4c-8.1-0.2-8.3-0.3-8.4-8.4
				C238.7,142.6,238.5,142.7,230.4,142.9z"/>
			<path fill="#FFFFFF" d="M533.8,292.7c8.1,0.2,8.3,0.3,8.4,8.4c0.2-8.1,0.3-8.3,8.4-8.4c-8.1-0.2-8.3-0.3-8.4-8.4
				C542,292.4,541.9,292.5,533.8,292.7z"/>
			<path fill="#FFFFFF" d="M521.1,89.3c8.1,0.2,8.3,0.3,8.4,8.4c0.2-8.1,0.3-8.3,8.4-8.4c-8.1-0.2-8.3-0.3-8.4-8.4
				C529.3,89,529.2,89.1,521.1,89.3z"/>
		</g>
		<g>
			<path fill="#FFFFFF" d="M249.3,68.6c8.1,0.2,8.3,0.3,8.4,8.4c0.2-8.1,0.3-8.3,8.4-8.4c-8.1-0.2-8.3-0.3-8.4-8.4
				C257.6,68.3,257.4,68.4,249.3,68.6z"/>
			<path fill="#FFFFFF" d="M120.4-37.7c8.1,0.2,8.3,0.3,8.4,8.4c0.2-8.1,0.3-8.3,8.4-8.4c-8.1-0.2-8.3-0.3-8.4-8.4
				C128.7-38,128.5-37.8,120.4-37.7z"/>
			<path fill="#FFFFFF" d="M423.8,112.1c8.1,0.2,8.3,0.3,8.4,8.4c0.2-8.1,0.3-8.3,8.4-8.4c-8.1-0.2-8.3-0.3-8.4-8.4
				C432,111.8,431.9,112,423.8,112.1z"/>
			<path fill="#FFFFFF" d="M411-91.2c8.1,0.2,8.3,0.3,8.4,8.4c0.2-8.1,0.3-8.3,8.4-8.4c-8.1-0.2-8.3-0.3-8.4-8.4
				C419.3-91.5,419.2-91.4,411-91.2z"/>
		</g>
		<g>
			<path fill="#FFFFFF" d="M1112.9,178.7c8.1,0.2,8.3,0.3,8.4,8.4c0.2-8.1,0.3-8.3,8.4-8.4c-8.1-0.2-8.3-0.3-8.4-8.4
				C1121.1,178.4,1121,178.5,1112.9,178.7z"/>
			<path fill="#FFFFFF" d="M984,72.4c8.1,0.2,8.3,0.3,8.4,8.4c0.2-8.1,0.3-8.3,8.4-8.4c-8.1-0.2-8.3-0.3-8.4-8.4
				C992.2,72.1,992.1,72.3,984,72.4z"/>
			<path fill="#FFFFFF" d="M1287.3,222.2c8.1,0.2,8.3,0.3,8.4,8.4c0.2-8.1,0.3-8.3,8.4-8.4c-8.1-0.2-8.3-0.3-8.4-8.4
				C1295.6,221.9,1295.5,222.1,1287.3,222.2z"/>
			<path fill="#FFFFFF" d="M1274.6,18.9c8.1,0.2,8.3,0.3,8.4,8.4c0.2-8.1,0.3-8.3,8.4-8.4c-8.1-0.2-8.3-0.3-8.4-8.4
				C1282.9,18.6,1282.7,18.7,1274.6,18.9z"/>
		</g>
		<g>
			<path fill="#FFFFFF" d="M1753.2,170.2c-8.1,0.2-8.3,0.3-8.4,8.4c-0.2-8.1-0.3-8.3-8.4-8.4c8.1-0.2,8.3-0.3,8.4-8.4
				C1744.9,169.9,1745.1,170.1,1753.2,170.2z"/>
			<path fill="#FFFFFF" d="M1882.1,64c-8.1,0.2-8.3,0.3-8.4,8.4c-0.2-8.1-0.3-8.3-8.4-8.4c8.1-0.2,8.3-0.3,8.4-8.4
				C1873.8,63.7,1874,63.9,1882.1,64z"/>
			<path fill="#FFFFFF" d="M1578.7,213.8c-8.1,0.2-8.3,0.3-8.4,8.4c-0.2-8.1-0.3-8.3-8.4-8.4c8.1-0.2,8.3-0.3,8.4-8.4
				C1570.5,213.5,1570.6,213.6,1578.7,213.8z"/>
			<path fill="#FFFFFF" d="M1591.5,10.5c-8.1,0.2-8.3,0.3-8.4,8.4c-0.2-8.1-0.3-8.3-8.4-8.4c8.1-0.2,8.3-0.3,8.4-8.4
				C1583.2,10.1,1583.3,10.3,1591.5,10.5z"/>
		</g>
		<g>
			<path fill="#FFFFFF" d="M2041.1,315.6c-8.1,0.2-8.3,0.3-8.4,8.4c-0.2-8.1-0.3-8.3-8.4-8.4c8.1-0.2,8.3-0.3,8.4-8.4
				C2032.9,315.3,2033,315.4,2041.1,315.6z"/>
			<path fill="#FFFFFF" d="M2170,209.4c-8.1,0.2-8.3,0.3-8.4,8.4c-0.2-8.1-0.3-8.3-8.4-8.4c8.1-0.2,8.3-0.3,8.4-8.4
				C2161.8,209.1,2161.9,209.2,2170,209.4z"/>
			<path fill="#FFFFFF" d="M1866.7,359.2c-8.1,0.2-8.3,0.3-8.4,8.4c-0.2-8.1-0.3-8.3-8.4-8.4c8.1-0.2,8.3-0.3,8.4-8.4
				C1858.4,358.9,1858.5,359,1866.7,359.2z"/>
			<path fill="#FFFFFF" d="M1879.4,155.8c-8.1,0.2-8.3,0.3-8.4,8.4c-0.2-8.1-0.3-8.3-8.4-8.4c8.1-0.2,8.3-0.3,8.4-8.4
				C1871.1,155.5,1871.3,155.7,1879.4,155.8z"/>
		</g>
	</g>
	<polygon clip-path="url(#SVGID_2_)" fill="#26335A" points="-847.9,1208.1 -847.4,1006.2 -801.5,1006.4 -801.2,887.1 -727.7,887.3 
		-727.3,712.9 -566.9,773 -567.5,1018.5 -505.6,1018.6 -505.2,862.6 -358.3,863 -359,1120 -287.9,1120.1 -287.2,833.4 -211.5,833.6 
		-211.3,767.1 -192.9,767.1 -193.1,833.7 -170.2,833.7 -169.7,670.8 -156,670.9 -156.4,840.6 -115.1,840.7 -115.3,909.6 6.6,788.3 
		5.9,1054.4 47.2,1054.5 47.2,1033.9 168.8,1034.2 168.7,1075.5 191.6,1075.6 192.2,853.1 272.5,853.3 272.3,951.9 431.4,952.3 
		431.8,819.3 532,743.9 615,817.5 614.5,996.4 669,996.6 669.3,902.5 771.9,964.7 771.8,987.7 804.4,987.8 803.4,1357.1 
		-848.3,1352.6 	"/>
	<polygon clip-path="url(#SVGID_2_)" fill="#182246" points="703.8,1450.5 704.4,1220.7 652.2,1220.6 652.6,1084.8 569,1084.6 
		569.5,886.1 386.5,953.5 385.8,1232.9 315.3,1232.8 315.8,1055.2 148.6,1054.7 147.9,1347.2 66.9,1347 67.8,1020.6 -18.4,1020.3 
		-18.2,944.6 -39.1,944.5 -39.3,1020.3 -65.4,1020.2 -64.9,834.8 -80.6,834.8 -81.1,1028 -128.1,1027.9 -128.3,1106.2 -266.3,967.4 
		-267.1,1270.3 -314.2,1270.2 -314.1,1246.7 -452.5,1246.3 -452.6,1293.3 -478.7,1293.3 -478,1040 -569.4,1039.7 -569.7,1152 
		-750.9,1151.5 -750.5,1000.1 -864.2,913.6 -959,996.9 -959.6,1200.6 -1021.6,1200.4 -1021.4,1093.3 -1138.5,1163.5 -1138.6,1189.7 
		-1175.7,1189.6 -1176.8,1610 703.3,1615.1 	"/>
	<g clip-path="url(#SVGID_2_)">
		<g>
			
				<rect x="558.1" y="1225.1" transform="matrix(1 2.703500e-003 -2.703500e-003 1 3.3245 -1.6788)" fill="#FBED9B" width="129" height="7.6"/>
			
				<rect x="558.1" y="1244.4" transform="matrix(1 2.703500e-003 -2.703500e-003 1 3.3768 -1.6786)" fill="#FBED9B" width="129" height="7.6"/>
			
				<rect x="558" y="1263.8" transform="matrix(1 2.703500e-003 -2.703500e-003 1 3.4291 -1.6784)" fill="#FBED9B" width="129" height="7.6"/>
			
				<rect x="558" y="1283.1" transform="matrix(1 2.703500e-003 -2.703500e-003 1 3.4814 -1.6781)" fill="#FBED9B" width="129" height="7.6"/>
			
				<rect x="557.9" y="1302.5" transform="matrix(1 2.703500e-003 -2.703500e-003 1 3.5338 -1.6779)" fill="#FBED9B" width="129" height="7.6"/>
			
				<rect x="557.8" y="1321.8" transform="matrix(1 2.703500e-003 -2.703500e-003 1 3.5861 -1.6777)" fill="#FBED9B" width="129" height="7.6"/>
			
				<rect x="557.8" y="1341.2" transform="matrix(1 2.703500e-003 -2.703500e-003 1 3.6384 -1.6775)" fill="#FBED9B" width="129" height="7.6"/>
		</g>
	</g>
	<g clip-path="url(#SVGID_2_)">
		<g>
			
				<rect x="326.2" y="1352.3" transform="matrix(1 2.703500e-003 -2.703500e-003 1 3.6783 -0.898)" fill="#FBED9B" width="15.6" height="15.6"/>
			
				<rect x="355.3" y="1352.4" transform="matrix(1 2.703500e-003 -2.703500e-003 1 3.6786 -0.9765)" fill="#FBED9B" width="15.6" height="15.6"/>
			
				<rect x="326.1" y="1383.2" transform="matrix(1 2.703500e-003 -2.703500e-003 1 3.7619 -0.8976)" fill="#FBED9B" width="15.6" height="15.6"/>
			
				<rect x="355.2" y="1383.3" transform="matrix(1 2.703500e-003 -2.703500e-003 1 3.7622 -0.9762)" fill="#FBED9B" width="15.6" height="15.6"/>
			
				<rect x="326" y="1414.2" transform="matrix(1 2.703500e-003 -2.703500e-003 1 3.8454 -0.8973)" fill="#FBED9B" width="15.6" height="15.6"/>
			
				<rect x="355.1" y="1414.2" transform="matrix(1 2.703500e-003 -2.703500e-003 1 3.8458 -0.9758)" fill="#FBED9B" width="15.6" height="15.6"/>
			
				<rect x="326" y="1445.1" transform="matrix(1 2.703500e-003 -2.703500e-003 1 3.929 -0.897)" fill="#FBED9B" width="15.6" height="15.6"/>
			
				<rect x="355" y="1445.2" transform="matrix(1 2.703500e-003 -2.703500e-003 1 3.9293 -0.9755)" fill="#FBED9B" width="15.6" height="15.6"/>
		</g>
	</g>
	<polygon clip-path="url(#SVGID_2_)" fill="#26335A" points="789.6,1216.9 790.1,1015.1 836,1015.2 836.3,895.9 909.7,896.1 
		910.2,721.7 1070.6,781.8 1069.9,1027.3 1131.9,1027.4 1132.3,871.5 1279.1,871.9 1278.4,1128.8 1349.5,1129 1350.3,842.2 
		1426,842.4 1426.2,775.9 1444.5,776 1444.4,842.5 1467.3,842.5 1467.7,679.7 1481.5,679.7 1481,849.5 1522.3,849.6 1522.1,918.4 
		1644.1,797.1 1643.3,1063.2 1684.6,1063.3 1684.7,1042.7 1806.3,1043 1806.2,1084.3 1829.1,1084.4 1829.7,861.9 1910,862.1 
		1909.7,960.7 2068.9,961.2 2069.2,828.1 2169.5,752.7 2252.4,826.3 2252,1005.2 2306.5,1005.4 2306.7,911.3 2409.3,973.5 
		2409.3,996.5 2441.8,996.6 2440.8,1365.9 789.2,1361.4 	"/>
	<polygon clip-path="url(#SVGID_2_)" fill="#182246" points="2341.3,1459.4 2341.9,1229.6 2289.6,1229.4 2290,1093.6 2206.4,1093.4 
		2207,894.9 2024,962.3 2023.3,1241.8 1952.7,1241.6 1953.2,1064 1786.1,1063.5 1785.3,1356 1704.4,1355.8 1705.2,1029.4 
		1619.1,1029.2 1619.3,953.4 1598.4,953.4 1598.2,1029.1 1572.1,1029 1572.6,843.6 1556.9,843.6 1556.4,1036.8 1509.4,1036.7 
		1509.2,1115 1371.1,976.3 1370.3,1279.2 1323.3,1279 1323.4,1255.5 1185,1255.2 1184.8,1302.2 1158.7,1302.1 1159.4,1048.8 
		1068,1048.6 1067.7,1160.8 886.5,1160.3 886.9,1008.9 773.3,922.4 678.4,1005.7 677.9,1209.4 615.8,1209.2 616.1,1102.2 
		498.9,1172.4 498.9,1198.5 461.8,1198.4 460.6,1618.8 2340.8,1623.9 	"/>
	<g clip-path="url(#SVGID_2_)">
		
			<rect x="1903.3" y="1100.9" transform="matrix(1 2.703500e-003 -2.703500e-003 1 2.9958 -5.154)" fill="#FBED9B" width="9.2" height="9.2"/>
		
			<rect x="1920.5" y="1101" transform="matrix(1 2.703500e-003 -2.703500e-003 1 2.9959 -5.2004)" fill="#FBED9B" width="9.2" height="9.2"/>
		
			<rect x="1920.4" y="1119.2" transform="matrix(1 2.703500e-003 -2.703500e-003 1 3.0453 -5.2002)" fill="#FBED9B" width="9.2" height="9.2"/>
		
			<rect x="1920.4" y="1137.5" transform="matrix(1 2.703500e-003 -2.703500e-003 1 3.0946 -5.2)" fill="#FBED9B" width="9.2" height="9.2"/>
		
			<rect x="1920.3" y="1155.7" transform="matrix(1 2.703500e-003 -2.703500e-003 1 3.1439 -5.1998)" fill="#FBED9B" width="9.2" height="9.2"/>
	</g>
	<g clip-path="url(#SVGID_2_)">
		
			<rect x="1396.7" y="1062.5" transform="matrix(1 2.703500e-003 -2.703500e-003 1 2.89 -3.7846)" fill="#FBED9B" width="9.2" height="9.2"/>
		
			<rect x="1396.7" y="1080.7" transform="matrix(1 2.703500e-003 -2.703500e-003 1 2.9393 -3.7844)" fill="#FBED9B" width="9.2" height="9.2"/>
		
			<rect x="1396.6" y="1099" transform="matrix(1 2.703500e-003 -2.703500e-003 1 2.9886 -3.7842)" fill="#FBED9B" width="9.2" height="9.2"/>
		
			<rect x="1396.6" y="1117.2" transform="matrix(1 2.703500e-003 -2.703500e-003 1 3.038 -3.784)" fill="#FBED9B" width="9.2" height="9.2"/>
	</g>
	<g clip-path="url(#SVGID_2_)">
		
			<rect x="1081.3" y="1112.7" transform="matrix(2.703500e-003 1 -1 2.703500e-003 2200.1846 28.3809)" fill="#FBED9B" width="9.2" height="9.2"/>
		
			<rect x="1099.5" y="1112.6" transform="matrix(2.703500e-003 1 -1 2.703500e-003 2218.3335 10.0841)" fill="#FBED9B" width="9.2" height="9.2"/>
		
			<rect x="1117.8" y="1112.6" transform="matrix(2.703500e-003 1 -1 2.703500e-003 2236.4824 -8.2127)" fill="#FBED9B" width="9.2" height="9.2"/>
		
			<rect x="1136" y="1112.5" transform="matrix(2.703500e-003 1 -1 2.703500e-003 2254.6313 -26.5095)" fill="#FBED9B" width="9.2" height="9.2"/>
	</g>
	<g clip-path="url(#SVGID_2_)">
		
			<rect x="257.8" y="1085.2" transform="matrix(1 2.703500e-003 -2.703500e-003 1 2.9472 -0.7054)" fill="#FBED9B" width="9.2" height="9.2"/>
		
			<rect x="274.9" y="1085.2" transform="matrix(1 2.703500e-003 -2.703500e-003 1 2.9474 -0.7518)" fill="#FBED9B" width="9.2" height="9.2"/>
		
			<rect x="274.9" y="1103.5" transform="matrix(1 2.703500e-003 -2.703500e-003 1 2.9967 -0.7516)" fill="#FBED9B" width="9.2" height="9.2"/>
		
			<rect x="274.8" y="1121.7" transform="matrix(1 2.703500e-003 -2.703500e-003 1 3.0461 -0.7514)" fill="#FBED9B" width="9.2" height="9.2"/>
		
			<rect x="274.8" y="1140" transform="matrix(1 2.703500e-003 -2.703500e-003 1 3.0954 -0.7512)" fill="#FBED9B" width="9.2" height="9.2"/>
	</g>
	
		<rect x="1225.2" y="1457" transform="matrix(1 2.703500e-003 -2.703500e-003 1 3.9565 -3.4169)" clip-path="url(#SVGID_2_)" fill="#FBED9B" width="81.3" height="9.6"/>
	<g clip-path="url(#SVGID_2_)">
		<path opacity="0.13" fill="#95979A"  a:adobe-blending-mode="lighten" d="M1726.8,182.6c-116.4-38.4-228.5-15.6-250.4,50.8
			c-21.9,66.5,54.7,151.5,171,189.8c116.4,38.4,228.5,15.6,250.4-50.8C1919.8,305.9,1843.2,221,1726.8,182.6z M1870.9,378.8
			c-18.9,30.8-57.5,41.5-91.4,44.2c4.4-0.4,12.2-13.2,14.2-16.4c7.3-11.9,7.7-29.9-7.7-34.8c-15.9-5.1-33,0.8-46.5,9.5
			c2.6-1.7-9-20.4-10.3-22c-12.4-14.6-31.4-6.6-43.5,4.1c-10.1,9-22.4,19-28.8,31.1c2-13.5-1.9-28.9-4.7-42.1
			c-3.3-15.8-13.8-33.6-32.5-29.2c-2,0.5-22.4,8.6-21.3,11.5c-5.7-15-15.9-29.9-31.7-35.3c-15.3-5.3-25.7,9.4-26.9,23.3
			c-0.3,3.7-1.7,18.7,1.7,21.6c-25.6-22.4-50.3-53.9-47.2-89.9c3.3-37.8,41.6-58,75.4-64.9c16.1-3.3,32.8-4.3,49.2-3.6
			c5.2,0.2,10.5,0.6,15.7,1.2c0.9,0.1,4.9,1.3,5.7,0.8c-24.6,15.9-35.3,49.3-4.9,66c9.7,5.3,20.9,5.3,30.8,0.5
			c10-4.9,16.8-14.5,21.6-24.2c2.8-5.6,5-11.4,7-17.2c1.2-3.6,5.6-11.9,4.9-15.5c0,0,4.4,25,4.4,25c2.5-0.6,9,1.8,9,1.8
			s6.7,1.9,8.3,3.9c0,0,18.4-17.5,18.4-17.5c-2.6,2.5-4.1,11.7-5.3,15.4c-1.9,5.9-3.6,11.9-4.6,18c-1.9,10.7-2.2,22.5,3,32.4
			c5.1,9.7,14.1,16.4,25.1,17.9c34.4,4.7,45.7-28.6,35.3-56c0.3,0.9,4.3,2.3,5.1,2.8c4.5,2.6,9,5.4,13.3,8.3
			c13.6,9.2,26.4,19.9,37.4,32.2C1872,307.4,1890.8,346.4,1870.9,378.8z"/>
		
			<linearGradient id="SVGID_4_" gradientUnits="userSpaceOnUse" x1="580.9081" y1="1607.6985" x2="1233.7798" y2="264.6482" gradientTransform="matrix(0.9823 -0.1874 0.1874 0.9823 -109.65 199.6246)">
			<stop  offset="0" style="stop-color:#D1D3D4"/>
			<stop  offset="0.3439" style="stop-color:#DDDFDF;stop-opacity:0.6561"/>
			<stop  offset="0.9652" style="stop-color:#FDFDFD;stop-opacity:3.481477e-002"/>
			<stop  offset="1" style="stop-color:#FFFFFF;stop-opacity:0"/>
			<a:midPointStop  offset="0" style="stop-color:#D1D3D4"/>
			<a:midPointStop  offset="0.5753" style="stop-color:#D1D3D4"/>
			<a:midPointStop  offset="1" style="stop-color:#FFFFFF;stop-opacity:0"/>
		</linearGradient>
		<path opacity="0.62" fill="url(#SVGID_4_)" d="M1647.5,423.2c-8.4-2.8-16.6-5.8-24.6-9l0,0v0c-102.4-41.5-166.8-119.1-146.5-180.8
			v0L81.7,1433.6l40,72l1721-1079C1794.3,447.3,1721.7,447.7,1647.5,423.2z"/>
	</g>
	<linearGradient id="SVGID_5_" gradientUnits="userSpaceOnUse" x1="2039.0547" y1="701.2553" x2="2039.0547" y2="701.2551">
		<stop  offset="0" style="stop-color:#D1D3D4"/>
		<stop  offset="0.3486" style="stop-color:#E2E4E4;stop-opacity:0.6514"/>
		<stop  offset="1" style="stop-color:#FFFFFF;stop-opacity:0"/>
		<a:midPointStop  offset="0" style="stop-color:#D1D3D4"/>
		<a:midPointStop  offset="0.4677" style="stop-color:#D1D3D4"/>
		<a:midPointStop  offset="1" style="stop-color:#FFFFFF;stop-opacity:0"/>
	</linearGradient>
	<polygon opacity="0.62" clip-path="url(#SVGID_2_)" fill="url(#SVGID_5_)" points="2039.1,701.3 2039.1,701.3 2039.1,701.3 	"/>
	<polygon clip-path="url(#SVGID_2_)" fill="#081133" points="2491.9,1712.4 2492.5,1482.6 2440.3,1482.4 2440.6,1346.6 
		2357.1,1346.4 2357.6,1147.9 2174.6,1215.3 2173.9,1494.8 2103.4,1494.6 2103.9,1317 1936.7,1316.5 1935.9,1609 1855,1608.8 
		1855.9,1282.4 1769.7,1282.1 1769.9,1206.4 1749,1206.4 1748.8,1282.1 1722.7,1282 1723.2,1096.6 1707.5,1096.6 1707,1289.8 
		1660,1289.7 1659.8,1368 1521.8,1229.2 1520.9,1532.2 1473.9,1532 1474,1508.5 1335.6,1508.2 1335.5,1555.2 1309.4,1555.1 
		1310,1301.8 1218.7,1301.5 1218.3,1413.8 1037.2,1413.3 1037.6,1261.9 923.9,1175.4 829,1258.7 828.5,1462.4 766.5,1462.2 
		766.7,1355.2 649.6,1425.3 649.5,1451.5 612.4,1451.4 611.3,1871.8 2491.4,1876.9 	"/>
	<g clip-path="url(#SVGID_2_)">
		<g>
			
				<rect x="2195.6" y="1233.9" transform="matrix(1 2.703500e-003 -2.703500e-003 1 3.3543 -6.1056)" fill="#FBED9B" width="129" height="7.6"/>
			
				<rect x="2195.5" y="1253.3" transform="matrix(1 2.703500e-003 -2.703500e-003 1 3.4067 -6.1054)" fill="#FBED9B" width="129" height="7.6"/>
			
				<rect x="2195.5" y="1272.6" transform="matrix(1 2.703500e-003 -2.703500e-003 1 3.459 -6.1052)" fill="#FBED9B" width="129" height="7.6"/>
			
				<rect x="2195.4" y="1292" transform="matrix(1 2.703500e-003 -2.703500e-003 1 3.5113 -6.105)" fill="#FBED9B" width="129" height="7.6"/>
			
				<rect x="2195.4" y="1311.3" transform="matrix(1 2.703500e-003 -2.703500e-003 1 3.5636 -6.1048)" fill="#FBED9B" width="129" height="7.6"/>
			
				<rect x="2195.3" y="1330.7" transform="matrix(1 2.703500e-003 -2.703500e-003 1 3.6159 -6.1046)" fill="#FBED9B" width="129" height="7.6"/>
			
				<rect x="2195.3" y="1350" transform="matrix(1 2.703500e-003 -2.703500e-003 1 3.6682 -6.1043)" fill="#FBED9B" width="129" height="7.6"/>
		</g>
	</g>
	<g clip-path="url(#SVGID_2_)">
		<g>
			
				<rect x="1963.7" y="1361.1" transform="matrix(1 2.703500e-003 -2.703500e-003 1 3.7081 -5.3248)" fill="#FBED9B" width="15.6" height="15.6"/>
			
				<rect x="1992.7" y="1361.2" transform="matrix(1 2.703500e-003 -2.703500e-003 1 3.7084 -5.4033)" fill="#FBED9B" width="15.6" height="15.6"/>
			
				<rect x="1963.6" y="1392.1" transform="matrix(1 2.703500e-003 -2.703500e-003 1 3.7917 -5.3245)" fill="#FBED9B" width="15.6" height="15.6"/>
			
				<rect x="1992.6" y="1392.1" transform="matrix(1 2.703500e-003 -2.703500e-003 1 3.792 -5.403)" fill="#FBED9B" width="15.6" height="15.6"/>
			
				<rect x="1963.5" y="1423" transform="matrix(1 2.703500e-003 -2.703500e-003 1 3.8753 -5.3241)" fill="#FBED9B" width="15.6" height="15.6"/>
			
				<rect x="1992.5" y="1423.1" transform="matrix(1 2.703500e-003 -2.703500e-003 1 3.8756 -5.4027)" fill="#FBED9B" width="15.6" height="15.6"/>
			
				<rect x="1963.4" y="1453.9" transform="matrix(1 2.703500e-003 -2.703500e-003 1 3.9589 -5.3238)" fill="#FBED9B" width="15.6" height="15.6"/>
			
				<rect x="1992.5" y="1454" transform="matrix(1 2.703500e-003 -2.703500e-003 1 3.9592 -5.4023)" fill="#FBED9B" width="15.6" height="15.6"/>
		</g>
	</g>
	<g clip-path="url(#SVGID_2_)">
		<g>
			
				<rect x="1789.1" y="1314.8" transform="matrix(1 2.703500e-003 -2.703500e-003 1 3.5822 -4.8531)" fill="#FBED9B" width="15.6" height="15.6"/>
			
				<rect x="1818.2" y="1314.9" transform="matrix(1 2.703500e-003 -2.703500e-003 1 3.5825 -4.9317)" fill="#FBED9B" width="15.6" height="15.6"/>
			
				<rect x="1789.1" y="1345.7" transform="matrix(1 2.703500e-003 -2.703500e-003 1 3.6658 -4.8528)" fill="#FBED9B" width="15.6" height="15.6"/>
			
				<rect x="1818.1" y="1345.8" transform="matrix(1 2.703500e-003 -2.703500e-003 1 3.6661 -4.9313)" fill="#FBED9B" width="15.6" height="15.6"/>
			
				<rect x="1789" y="1376.6" transform="matrix(1 2.703500e-003 -2.703500e-003 1 3.7494 -4.8525)" fill="#FBED9B" width="15.6" height="15.6"/>
			
				<rect x="1818" y="1376.7" transform="matrix(1 2.703500e-003 -2.703500e-003 1 3.7497 -4.931)" fill="#FBED9B" width="15.6" height="15.6"/>
			
				<rect x="1788.9" y="1407.6" transform="matrix(1 2.703500e-003 -2.703500e-003 1 3.8329 -4.8521)" fill="#FBED9B" width="15.6" height="15.6"/>
			
				<rect x="1817.9" y="1407.6" transform="matrix(1 2.703500e-003 -2.703500e-003 1 3.8333 -4.9306)" fill="#FBED9B" width="15.6" height="15.6"/>
		</g>
	</g>
	<g clip-path="url(#SVGID_2_)">
		<g>
			
				<rect x="962.9" y="1294.7" transform="matrix(1 2.703500e-003 -2.703500e-003 1 3.5249 -2.6195)" fill="#FBED9B" width="15.6" height="15.6"/>
			
				<rect x="991.9" y="1294.8" transform="matrix(1 2.703500e-003 -2.703500e-003 1 3.5252 -2.698)" fill="#FBED9B" width="15.6" height="15.6"/>
			
				<rect x="962.8" y="1325.6" transform="matrix(1 2.703500e-003 -2.703500e-003 1 3.6085 -2.6191)" fill="#FBED9B" width="15.6" height="15.6"/>
			
				<rect x="991.9" y="1325.7" transform="matrix(1 2.703500e-003 -2.703500e-003 1 3.6088 -2.6976)" fill="#FBED9B" width="15.6" height="15.6"/>
			
				<rect x="962.7" y="1356.6" transform="matrix(1 2.703500e-003 -2.703500e-003 1 3.692 -2.6188)" fill="#FBED9B" width="15.6" height="15.6"/>
			
				<rect x="991.8" y="1356.6" transform="matrix(1 2.703500e-003 -2.703500e-003 1 3.6924 -2.6973)" fill="#FBED9B" width="15.6" height="15.6"/>
			
				<rect x="962.6" y="1387.5" transform="matrix(1 2.703500e-003 -2.703500e-003 1 3.7756 -2.6185)" fill="#FBED9B" width="15.6" height="15.6"/>
			
				<rect x="991.7" y="1387.6" transform="matrix(1 2.703500e-003 -2.703500e-003 1 3.7759 -2.697)" fill="#FBED9B" width="15.6" height="15.6"/>
		</g>
	</g>
	<polygon clip-path="url(#SVGID_2_)" fill="#081133" points="854.4,1703.5 855,1473.7 802.8,1473.6 803.2,1337.8 719.6,1337.6 
		720.2,1139.1 537.2,1206.5 536.4,1485.9 465.9,1485.7 466.4,1308.2 299.3,1307.7 298.5,1600.2 217.5,1600 218.4,1273.6 
		132.2,1273.3 132.4,1197.6 111.6,1197.5 111.3,1273.3 85.2,1273.2 85.7,1087.8 70.1,1087.7 69.5,1281 22.5,1280.9 22.3,1359.2 
		-115.7,1220.4 -116.5,1523.3 -163.5,1523.2 -163.5,1499.7 -301.9,1499.3 -302,1546.3 -328.1,1546.3 -327.4,1293 -418.8,1292.7 
		-419.1,1405 -600.3,1404.5 -599.9,1253.1 -713.6,1166.6 -808.4,1249.9 -809,1453.6 -871,1453.4 -870.7,1346.3 -987.9,1416.5 
		-988,1442.6 -1025,1442.5 -1026.2,1863 854,1868 	"/>
	<g clip-path="url(#SVGID_2_)">
		<g>
			
				<rect x="60.3" y="1307.2" transform="matrix(1 2.703500e-003 -2.703500e-003 1 3.5446 -0.3326)" fill="#FBED9B" width="129" height="7.6"/>
			
				<rect x="60.2" y="1326.5" transform="matrix(1 2.703500e-003 -2.703500e-003 1 3.5969 -0.3323)" fill="#FBED9B" width="129" height="7.6"/>
			
				<rect x="60.2" y="1345.9" transform="matrix(1 2.703500e-003 -2.703500e-003 1 3.6493 -0.3321)" fill="#FBED9B" width="129" height="7.6"/>
			
				<rect x="60.1" y="1365.2" transform="matrix(1 2.703500e-003 -2.703500e-003 1 3.7016 -0.3319)" fill="#FBED9B" width="129" height="7.6"/>
			
				<rect x="60.1" y="1384.6" transform="matrix(1 2.703500e-003 -2.703500e-003 1 3.7539 -0.3317)" fill="#FBED9B" width="129" height="7.6"/>
			
				<rect x="60" y="1403.9" transform="matrix(1 2.703500e-003 -2.703500e-003 1 3.8062 -0.3315)" fill="#FBED9B" width="129" height="7.6"/>
			
				<rect x="60" y="1423.3" transform="matrix(1 2.703500e-003 -2.703500e-003 1 3.8585 -0.3313)" fill="#FBED9B" width="129" height="7.6"/>
		</g>
	</g>
	<g clip-path="url(#SVGID_2_)">
		<polygon fill="#5A5A5A" points="1534.4,1415.2 0,1415.2 0,1435.5 1511,1435.5 		"/>
		<g>
			<rect y="1435.5" fill="#4C4D4D" width="1511" height="42.5"/>
			<polygon fill="#6A6A6A" points="0,1478 1511,1478 1053.3,1872 0,1872 			"/>
			<polygon fill="#5A5A5A" points="1511,1435.5 985.1,1872 1053.3,1872 1511,1478 			"/>
		</g>
		<polygon fill="#5A5A5A" points="1534.4,1415.2 1588,1415.2 1053.3,1872 985.1,1872 		"/>
		<polygon fill="#636363" points="1588,1415.2 1588,1536.9 1199.3,1872 1053.3,1872 		"/>
		<polygon fill="#1C1C2F" points="1562.1,1559.1 1562.1,1896.3 1199.3,1872 		"/>
		<ellipse opacity="0.56" fill="#6A6A6A"  a:adobe-blending-mode="multiply" cx="645" cy="1743.5" rx="277" ry="79.8"/>
		<g>
			<g>
				<path fill="#282829" d="M645,1235.3c0,0,149.3,336.6,159.5,479.6c0,0,55.7-12.7,48.9-81c0,0,40.5-33.3,67.5,0
					c0,0,6.7-95.3-15.2-135c0,0,25.3,1.6,37.1,25.4c0,0-13.5-203.2-190.7-289H645z"/>
				<path fill="#282829" d="M645,1235.3c0,0-149.3,336.6-159.5,479.6c0,0-55.7-12.7-48.9-81c0,0-40.5-33.3-67.5,0
					c0,0-6.7-95.3,15.2-135c0,0-25.3,1.6-37.1,25.4c0,0,13.5-203.2,190.7-289H645z"/>
				<path fill="#282829" d="M485.5,1714.9c0,0,144.8,47.3,318.9,0l-5.8-239.8l-85.4-181.8l-68.3-57.9l-159.5,290V1714.9z"/>
			</g>
			<path fill="#776F6C" d="M904,1490.1c-38-188.4-165.4-254.8-165.4-254.8l-93.7,9.5l-93.7-9.5c0,0-127.4,66.4-165.4,254.8
				c0,0-25.3,76.2,30.4,81.2c0,0,21.1,11,36.3,0c0,0,43.9,7.6,23.6-40.5c0.6,1.4,17-11.2,18-12.2c18.3-19.9,1.9-48.8-21.3-53.6
				c0,0,32.9-92.8,74.2-105.5c0,0-17.7,92-16,113.1c0,0-44.7,67.5-27.8,193.2c0,0-35.4,0-65.8,26.9c-9.4,8.3-11.1,22.6-3.5,32.6
				c18.9,25.2,69.5,61.9,190.9,6.9c2.9-1.3,4.5-4.4,3.8-7.5c-5.5-26-27-141.3,16.3-158.4c43.4,17.2,21.8,132.4,16.3,158.4
				c-0.7,3.1,1,6.2,3.8,7.5c121.4,55,172,18.3,190.9-6.9c7.5-10.1,5.9-24.3-3.5-32.6c-30.3-26.9-65.8-26.9-65.8-26.9
				c11.7-86.8-6.1-145.9-18.2-174.1c-5.7-13.3-9.4-27.3-11-41.6c-3.9-34.6-14.7-90.5-14.7-90.5c41.3,12.7,74.2,105.5,74.2,105.5
				c-23.2,4.8-39.6,33.7-21.3,53.6c1,1,17.4,13.6,18,12.2c-20.2,48.1,23.6,40.5,23.6,40.5c15.2,11,36.3,0,36.3,0
				C929.3,1566.2,904,1490.1,904,1490.1z"/>
			<g>
				<path d="M388,1469.6c-5.9-7.6-12.2-19-15.5-35.6l21.2,14.1c1.3-4.4,2.6-8.7,4-13c-7.2-6.7-17.4-19.7-22-42.6l30,19.9
					c1.3-3.5,2.7-7,4.1-10.4c-7.1-5.8-19.5-19.1-24.7-44.9l34.4,22.8c0.6-1.3,1.2-2.5,1.8-3.8c61.2-6.2,79.4,30,79.4,30.1
					c-16.1,28.3-26.2,56.8-26.2,56.8c24.3,5.1,41.5,35.4,22.3,56.4c-1,1.1-18.2,14.2-18.8,12.8c21.2,50.6-24.7,42.6-24.7,42.6
					c-15.9,11.5-38,0-38,0c-58.3-5.3-31.8-85.4-31.8-85.4C385,1482.7,386.5,1476.1,388,1469.6z"/>
				<path fill="#545456" d="M404.1,1543.5c3.2,14.1,25,33.8,25.1,33.9c-7.7-1.4-13.3-4.3-13.3-4.3
					C403.1,1557.3,404.1,1543.5,404.1,1543.5z"/>
				<path fill="#545456" d="M425.8,1541.2c9.1,18.8,35.6,32.2,35.6,32.2c-4.7,0.2-8.2-0.4-8.2-0.4
					C427.5,1562.1,425.8,1541.2,425.8,1541.2z"/>
			</g>
			<path fill="#707171" d="M547.1,1359.5c-19,5.8-36.2,28.5-49.2,51.4h0c33.7-75.2,71.5-127.3,71.5-127.3
				C562,1295.4,547.1,1359.5,547.1,1359.5z"/>
			<path fill="#423C38" d="M767.9,1490.1c-3.7-9-6.5-18.3-8.4-27.9H531.3c-0.3,4.3-0.4,7.8-0.2,10.4c0,0-3.9,5.9-9,17.5H767.9z"/>
			<path d="M900.9,1471.3c5.8-7.4,11.9-18.5,15.2-34.6l-20.7,13.7c-1.2-4.3-2.5-8.5-3.9-12.6c7.1-6.5,17-19.2,21.5-41.5l-29.3,19.3
				c-1.3-3.4-2.6-6.8-4-10.2c7-5.6,19-18.6,24.1-43.7l-33.6,22.2c-0.6-1.2-1.2-2.5-1.8-3.7c-59.8-6-77.6,29.2-77.6,29.3
				c15.7,27.5,25.6,55.3,25.6,55.3c-23.8,4.9-40.6,34.5-21.8,54.9c1,1.1,17.8,13.9,18.4,12.5c-20.7,49.2,24.2,41.4,24.2,41.4
				c15.5,11.2,37.1,0,37.1,0c57-5.2,31.1-83.1,31.1-83.1C903.9,1484,902.4,1477.6,900.9,1471.3z"/>
			<path fill="#545456" d="M864.2,1542.1c-9.1,18.6-35.4,31.9-35.4,31.9c4.6,0.2,8.2-0.4,8.2-0.4
				C862.5,1562.8,864.2,1542.1,864.2,1542.1z"/>
			<path fill="#545456" d="M885.8,1544.4c-3.2,13.9-24.9,33.4-24.9,33.5c7.6-1.4,13.3-4.3,13.3-4.3
				C886.8,1558.1,885.8,1544.4,885.8,1544.4z"/>
			<path opacity="0.54" fill="#776F6C" d="M742.9,1359.5c19,5.8,36.2,28.5,49.2,51.4h0c-33.7-75.2-71.5-127.3-71.5-127.3
				C728,1295.4,742.9,1359.5,742.9,1359.5z"/>
			<path d="M693,1304.1c-4.7-2.7-9.7-4.7-14.9-6.1c-1.6-0.5-3.3-0.9-5-1.2c-0.3-0.1-1.7-0.1-1.9-0.3c6,7.4,5.9,18.9-5.2,21
				c-3.5,0.7-7-0.5-9.6-3c-2.6-2.5-3.7-6.2-4.2-9.7c-0.3-2-0.4-4-0.4-6.1c0-1.3-0.5-4.3,0.1-5.3c0,0-3.9,7.3-3.9,7.3
				c-0.7-0.4-3-0.4-3-0.4s-2.3-0.1-3,0.4c0,0-3.9-7.3-3.9-7.3c0.6,1,0.1,4.1,0.1,5.3c0,2-0.1,4.1-0.4,6.1c-0.5,3.5-1.6,7.2-4.2,9.7
				c-2.6,2.5-6.1,3.6-9.6,3c-11.1-2.1-11.2-13.5-5.2-21c-0.2,0.2-1.6,0.3-1.9,0.3c-1.7,0.3-3.3,0.8-5,1.2
				c-5.2,1.5-10.2,3.5-14.9,6.1c-9.8,5.6-19.6,15.8-16.7,27.8c2.7,11.5,13.6,18.7,23.8,23.1c-1.3-0.6-2.4-5.3-2.7-6.5
				c-1-4.4,0.7-10,6-10c5.5,0.1,10.2,3.6,13.5,7.7c-0.6-0.8,4.9-5.4,5.4-5.8c5.4-3.3,10.4,1.2,13.1,5.7c2.2,3.8,5,8.2,5.8,12.6
				c0.8-4.4,3.6-8.8,5.8-12.6c2.6-4.6,7.7-9,13.1-5.7c0.6,0.3,6.1,5,5.4,5.8c3.3-4.1,8-7.6,13.5-7.7c5.3-0.1,7,5.6,6,10
				c-0.3,1.2-1.4,6-2.7,6.5c10.2-4.3,21.1-11.6,23.8-23.1C712.6,1319.8,702.8,1309.7,693,1304.1z"/>
			<path d="M855,1691.3c-30.9-27.4-67-27.4-67-27.4c2.4-18.2,3.6-35.3,3.8-51.1c-62.3,12.1-105.9,2-122.7-3.3c0.3,2,0.5,4.1,0.6,6.2
				L654,1612c0,0,6.5,10.7,16.5,17.8c0,1.8,0,3.6,0,5.4l-13.1-3.2c0,0,4.9,8.1,12.8,14.9c-0.1,2-0.2,4-0.3,6l-10-2.4
				c0,0,3.5,5.7,9.3,11.6c-2.2,26.9-7,51.4-9.2,61.9c-0.7,3.2,1,6.3,3.9,7.7c123.8,56,175.3,18.6,194.6-7.1
				C866.3,1714.3,864.6,1699.8,855,1691.3z"/>
			<path d="M633.1,1632.8l-13,3.1c0-1.9,0-3.7,0-5.6c10-7.2,16.5-17.8,16.5-17.8l-15.7,3.8c0.2-2.1,0.4-4.2,0.6-6.2
				c-16.9,5.3-61.1,15.6-124.2,3.3c0.2,16,1.4,33.2,3.9,51.7c0,0-36.6,0-67.8,27.7c-9.7,8.6-11.4,23.3-3.7,33.7
				c19.5,26,71.7,63.8,196.9,7.1c3-1.3,4.6-4.6,4-7.8c-2.2-10.6-7-35.5-9.3-62.8c5.7-5.9,9.2-11.5,9.2-11.5l-9.8,2.4
				c-0.1-2.1-0.2-4.1-0.3-6.2C628.2,1640.9,633.1,1632.8,633.1,1632.8z"/>
			<path d="M638.2,1242.6c0,0-87.7,85.5-227.9,104.7c0,0,57.6-89.8,127.5-112C607.8,1213.1,638.2,1242.6,638.2,1242.6z"/>
			<path d="M651.2,1242.6c0,0,87.7,85.5,227.9,104.7c0,0-57.6-89.8-127.5-112C681.7,1213.1,651.2,1242.6,651.2,1242.6z"/>
			<g>
				<path fill="#E9D6BB" d="M879.1,1034.8c-4.8-13.1-12-25.7-22.6-34.9c-43.9-37.8-218.2-26.3-218.2-26.3S463.9,962.1,420,999.9
					c-10.6,9.2-17.8,21.7-22.6,34.9c-24.4,66.2-6.6,144.1,51.1,184.8c55,38.9,124.9,43.9,189.8,42.6c64.9,1.3,134.8-3.7,189.8-42.6
					C885.7,1178.9,903.5,1101,879.1,1034.8z"/>
				<path d="M815.8,719.3c-4.6,43.5-35.5,121.4-35.5,121.4c-10.1,0.9-30.7-11.6-41.7-13.9c-15.3-3.3-30.9-4.9-46.5-5.6
					c-41.7-1.9-83.5,0.7-125,4.6c-5.4,0.5-74,7-70.9,14.9c0,0-30.9-77.9-35.5-121.4c-35.5,48.1-187.9,452.4,28,523.3
					c0,0-42.9-73.1-48.6-107.5c0,0,143.2,24.1,198.2,24.1c55,0,198.2-24.1,198.2-24.1c-5.7,34.4-48.6,107.5-48.6,107.5
					C1003.6,1171.7,851.3,767.4,815.8,719.3z"/>
				<path d="M690.8,1216.6c0,0-5.3,0-13.2-0.1c-2,0-4.1,0-6.3,0c-2.2,0-4.6,0-7,0.1c-2.4,0-4.9,0.1-7.4,0.2c-2.5,0-5.1,0.2-7.6,0.4
					c-2.6,0.1-5.1,0.4-7.6,0.7c-2.5,0.2-4.9,0.7-7.3,1c-2.3,0.5-4.6,0.9-6.7,1.3c-2.1,0.6-4.1,1.1-5.9,1.7c-1.8,0.6-3.4,1.3-4.9,1.8
					c-1.5,0.5-2.7,1.2-3.7,1.7c-2,1-3.3,1.6-3.3,1.6s0.9-1,2.6-2.6c0.9-0.8,1.8-1.9,3.2-2.8c1.4-0.9,2.9-2.1,4.7-3
					c1.8-0.9,3.8-1.9,6-2.8c2.2-0.7,4.5-1.7,7-2.3c2.5-0.5,5-1.3,7.6-1.6c2.6-0.3,5.3-0.8,8-0.9c2.7-0.2,5.4-0.3,8-0.2
					c2.6-0.1,5.2,0.2,7.7,0.3c2.5,0.1,4.9,0.5,7.2,0.8c2.3,0.3,4.4,0.7,6.3,1.1C685.9,1214.6,690.8,1216.6,690.8,1216.6z"/>
				<path d="M647.7,1248.4c0,0,1.9,0.1,4.8,0.3c1.4,0.1,3,0.1,4.7,0.1c1.7,0,3.5,0,5.3-0.2c0.9-0.1,1.8-0.1,2.7-0.3
					c0.9-0.2,1.8-0.2,2.6-0.4c0.8-0.2,1.6-0.3,2.4-0.6c0.7-0.2,1.5-0.4,2.1-0.6c0.6-0.2,1.3-0.4,1.8-0.6c0.5-0.2,1-0.4,1.4-0.6
					c0.8-0.3,1.2-0.5,1.2-0.5s-0.3,0.4-0.9,1c-0.6,0.7-1.5,1.5-2.7,2.3c-0.6,0.5-1.3,0.8-2.1,1.2c-0.8,0.4-1.6,0.8-2.5,1
					c-1.8,0.7-3.7,1-5.7,1.2c-2,0.1-4,0.1-5.8-0.2c-1.8-0.2-3.5-0.6-4.9-1.1C649.3,1249.5,647.7,1248.4,647.7,1248.4z"/>
				<g>
					<path fill="#FFFFFF" d="M497.2,1018.5c-9.5,9.3-15.1,22.5-14.3,36.9c1.4,26.5,24.1,46.9,50.6,45.5
						c19.7-1.1,35.9-13.8,42.4-31.1L497.2,1018.5z"/>
					<path fill="#FFFFFF" d="M779.2,1018.5c9.5,9.3,15.1,22.5,14.3,36.9c-1.4,26.5-24.1,46.9-50.6,45.5
						c-19.7-1.1-35.9-13.8-42.4-31.1L779.2,1018.5z"/>
				</g>
			</g>
			<path opacity="0.54" fill="#776F6C"  a:adobe-blending-mode="multiply" d="M645,1546.8c0,0-76.6,40.5-23.5,186.9
				c1.1-0.5,2.2-1,3.4-1.5c2.9-1.3,4.5-4.4,3.8-7.5c-5.5-26-27-141.3,16.3-158.4c43.4,17.2,21.8,132.4,16.3,158.4
				c-0.7,3.1,1,6.2,3.8,7.5c1.1,0.5,2.2,1,3.4,1.5C721.6,1587.3,645,1546.8,645,1546.8z"/>
		</g>
	</g>
	
	<rect clip-path="url(#SVGID_2_)" fill="url(#SVGID_6_)"  a:adobe-blending-mode="multiply" width="2272" height="1872"/>
	<rect y="281.6" clip-path="url(#SVGID_2_)" fill="none" width="2272" height="1590.4"/>
</g>
</svg>
